<svg width="198" height="106" viewBox="0 0 198 106" fill="none" xmlns="http://www.w3.org/2000/svg">
   <path
      d="M105.869 62.0547C105.869 68.4512 104.746 74.335 102.5 79.7061C100.303 85.0771 97.251 89.7158 93.3447 93.6221C89.4385 97.4795 84.7998 100.507 79.4287 102.704C74.0576 104.901 68.2227 106 61.9238 106H10.5078C9.14062 106 7.87109 105.756 6.69922 105.268C5.52734 104.779 4.50195 104.12 3.62305 103.29C2.79297 102.411 2.13379 101.386 1.64551 100.214C1.15723 99.042 0.913086 97.7725 0.913086 96.4053V10.5654C0.913086 9.24707 1.15723 8.00195 1.64551 6.83008C2.13379 5.6582 2.79297 4.63281 3.62305 3.75391C4.50195 2.875 5.52734 2.19141 6.69922 1.70312C7.87109 1.21484 9.14062 0.970703 10.5078 0.970703H61.9238C68.2227 0.970703 74.0576 2.06934 79.4287 4.2666C84.7998 6.46387 89.4385 9.51563 93.3447 13.4219C97.251 17.2793 100.303 21.918 102.5 27.3379C104.746 32.709 105.869 38.5684 105.869 44.916V62.0547ZM86.8262 44.916C86.8262 41.2051 86.2158 37.8115 84.9951 34.7354C83.8232 31.6592 82.1387 29.0469 79.9414 26.8984C77.7441 24.7012 75.1074 23.0166 72.0312 21.8447C69.0039 20.624 65.6348 20.0137 61.9238 20.0137H19.9561V86.957H61.9238C65.6348 86.957 69.0039 86.3711 72.0312 85.1992C75.1074 83.9785 77.7441 82.2939 79.9414 80.1455C82.1387 77.9482 83.8232 75.3359 84.9951 72.3086C86.2158 69.2324 86.8262 65.8145 86.8262 62.0547V44.916ZM197.598 98.9639C197.598 99.9665 197.419 100.897 197.061 101.757C196.702 102.616 196.201 103.368 195.557 104.013C194.948 104.621 194.214 105.105 193.354 105.463C192.495 105.821 191.564 106 190.562 106H140.181C138.892 106 137.495 105.857 135.991 105.57C134.523 105.248 133.055 104.765 131.587 104.12C130.155 103.476 128.776 102.652 127.451 101.649C126.126 100.611 124.945 99.3757 123.906 97.9434C122.904 96.4753 122.098 94.7923 121.489 92.8945C120.881 90.9609 120.576 88.7946 120.576 86.3955V48.583C120.576 47.2939 120.719 45.9154 121.006 44.4473C121.328 42.9434 121.812 41.4753 122.456 40.043C123.101 38.5749 123.942 37.1784 124.98 35.8535C126.019 34.5286 127.254 33.3649 128.687 32.3623C130.155 31.3239 131.838 30.5003 133.735 29.8916C135.633 29.2829 137.782 28.9785 140.181 28.9785H196.953V42.9434H140.181C138.354 42.9434 136.958 43.4268 135.991 44.3936C135.024 45.3604 134.541 46.7926 134.541 48.6904V86.3955C134.541 88.1859 135.024 89.5824 135.991 90.585C136.994 91.5518 138.39 92.0352 140.181 92.0352H183.633V74.5254H146.465V60.4531H190.562C191.564 60.4531 192.495 60.6501 193.354 61.0439C194.214 61.402 194.948 61.9033 195.557 62.5479C196.201 63.1924 196.702 63.9443 197.061 64.8037C197.419 65.6273 197.598 66.5225 197.598 67.4893V98.9639Z"
      fill="white" />
</svg>
   