<svg width="24" height="24" viewBox="0 0 24 24" fill="none" xmlns="http://www.w3.org/2000/svg">
   <path fill-rule="evenodd" clip-rule="evenodd"
      d="M3 7.25C3 6.00736 4.00736 5 5.25 5H18.75C19.9927 5 21 6.00736 21 7.25V16.25C21 17.4927 19.9927 18.5 18.75 18.5H5.25C4.00736 18.5 3 17.4927 3 16.25V7.25ZM4.5 6.5H5.25L12 10.25L18.75 6.5H19.5H4.5ZM19.5 8V16.25C19.5 16.6642 19.1642 17 18.75 17H5.25C4.83579 17 4.5 16.6642 4.5 16.25V8L11.4969 11.4984C11.8136 11.6568 12.1864 11.6568 12.5031 11.4984L19.5 8Z"
      fill="black" />
</svg>
   