<svg width="24" height="24" viewBox="0 0 24 24" fill="none" xmlns="http://www.w3.org/2000/svg">
   <path
      d="M5.12906 4C3.7983 4 3 4.79997 3 5.86521C3 6.93044 3.79839 7.72738 4.99562 7.72738C6.32639 7.72738 7.12468 6.93044 7.12468 5.86521C7.12468 4.79997 6.32629 4 5.12906 4ZM3.10615 9.71997V20.5897H7.0246V9.71997H3.10615ZM10.2576 9.71997V20.5897H14.1761V14.6484C14.1761 12.8797 15.438 12.6254 15.8168 12.6254C16.1957 12.6254 17.2089 13.0055 17.2089 14.6484V20.5897H21V14.6484C21 11.2368 19.484 9.71997 17.588 9.71997C15.692 9.71997 14.6807 10.3513 14.1761 11.2364V9.71997H10.2576Z"
      fill="black" />
</svg>
   