<svg width="24" height="24" viewBox="0 0 24 24" fill="none" xmlns="http://www.w3.org/2000/svg">
   <path
      d="M3.01116 6.24158C2.85025 4.35 4.45456 3 6.16081 3H8.29764C9.31751 3 10.2372 3.61354 10.6288 4.55513L11.6815 7.08676C12.0419 7.95337 11.8917 8.94835 11.2915 9.66998L10.1644 11.0251C10.8917 12.1298 11.8078 13.1259 12.8511 13.9505L14.3246 12.7202C15.0475 12.1166 16.0463 11.9655 16.9155 12.3284L19.4374 13.3812C20.3773 13.7736 20.9893 14.6923 20.9893 15.7106C20.9893 16.0619 20.9919 16.4135 20.9946 16.7688V16.7701C20.9973 17.1239 21 17.4816 21 17.84C21 19.5458 19.6499 21.1502 17.7578 20.9888C10.0722 20.3326 3.66646 13.9449 3.01116 6.24158ZM6.16081 4.79973C5.31164 4.79973 4.74897 5.43473 4.80463 6.08905C5.38552 12.9175 11.0971 18.6138 17.9109 19.1956C18.5649 19.2513 19.2 18.6891 19.2 17.84C19.2 17.489 19.1974 17.1377 19.1947 16.7823V16.7801C19.192 16.4266 19.1893 16.069 19.1893 15.7106C19.1893 15.4183 19.0137 15.1547 18.7439 15.042L16.2219 13.9892C15.9725 13.885 15.6857 13.9284 15.4782 14.1016L12.9295 16.2298L12.3648 15.8324C10.7139 14.6707 9.29909 13.1418 8.28096 11.4033L7.96197 10.8585L9.9076 8.51922C10.0799 8.31209 10.123 8.02649 10.0196 7.77773L8.96677 5.24612C8.85438 4.97584 8.59038 4.79973 8.29764 4.79973H6.16081Z"
      fill="black" />
</svg>
   